<?xml version="1.0" encoding="utf-8"?>
<!-- Generator: Adobe Illustrator 22.0.1, SVG Export Plug-In . SVG Version: 6.00 Build 0)  -->
<svg version="1.1" id="Layer_1" xmlns="http://www.w3.org/2000/svg" xmlns:xlink="http://www.w3.org/1999/xlink" x="0px" y="0px"
	 width="300px" height="300px" viewBox="0 0 300 300" enable-background="new 0 0 300 300" xml:space="preserve">
<g>
	<path fill="#052261" d="M163.8,74.9V45.3l-23.3,23.4v29.5L163.8,74.9z"/>
	<path fill="#052261" d="M155.8,113.7h29.4l23.3-23.4h-29.4L155.8,113.7z"/>
	<path fill="#F72360" d="M112.3,158l11.7-11.7v26.5c-11.7,9.8-29.4,9.2-40.5-1.8c-11.7-11.7-11.7-30.8,0-42.5
		c9.2-9.2,22.1-11.1,33.1-6.2L96.9,142c-4.3,4.3-4.3,11.1,0,15.4C100.6,162.3,108,162.3,112.3,158z"/>
	<path fill="#052261" d="M56.4,197.4c-25.8-25.9-25.8-68.9,0-94.8c12.9-12.9,29.4-19.7,47.2-19.7c6.7,0,12.9,1.2,19,3.1v20.3
		c-6.1-2.5-12.3-4.3-19-4.3c-12.9,0-25.2,4.9-34.4,14.2c-19,19.1-19,49.2,0,68.3c9.2,9.2,21.5,14.2,34.4,14.2c6.7,0,13.5-1.2,19-4.3
		v20.3c-6.1,1.8-12.9,3.1-19,3.1C86.5,217.1,69.3,210.3,56.4,197.4z"/>
	<path fill="#052261" d="M30.7,76.1C55.2,51.5,90.2,41,123.9,47.2v19.7c-28.2-6.8-58.3,1.8-79.8,22.8C27.6,105.7,19,127.2,19,150
		s8.6,44.3,25.2,60.3c16,16,37.4,25.2,60.1,25.2c6.7,0,12.9-0.6,19-2.5v19.7c-6.1,1.2-12.9,1.8-19,1.8c-27.6,0-54-11.1-73.6-30.8
		C11,204.2,0,177.7,0,150S11,95.8,30.7,76.1z"/>
	<path fill="#F72360" d="M206.7,146.3l-16,44.3H181l-8-25.9l-7.4,25.9h-9.8l-16-44.3h12.3l8.6,28.3l7.4-28.3h9.8l7.4,28.3l8.6-28.3
		H206.7z"/>
	<path fill="#F72360" d="M242.9,177.1c0,4.3-1.8,8-4.3,10.5c-3.1,2.5-7.4,3.7-12.3,3.7c-4.9,0-9.2-1.2-12.3-4.3
		c-3.1-2.5-4.3-6.8-4.3-11.7h11c0,1.8,0.6,3.7,1.2,4.9c0.6,1.2,2.5,1.8,4.3,1.8s3.1-0.6,4.3-1.2c1.2-0.6,1.8-2.5,1.8-3.7
		c0-1.8-0.6-3.7-1.8-4.3s-3.1-1.2-6.1-1.2v-7.4c2.5,0,4.3-0.6,5.5-1.2c1.2-0.6,1.8-1.8,1.8-3.7c0-1.2-0.6-2.5-1.2-3.1
		c-0.6-0.6-1.8-1.2-3.7-1.2c-1.8,0-2.5,0.6-3.7,1.2c-1.8,0-2.5,1.2-2.5,3.1h-10.4c0-4.3,1.8-7.4,4.3-9.8c3.1-2.5,6.7-3.7,11.7-3.7
		c4.3,0,8,1.2,11,3.1c2.5,2.5,4.3,4.9,4.3,8.6c0,2.5-0.6,4.3-1.8,6.2c-1.2,1.8-3.1,3.1-4.9,3.7c2.5,0,4.3,1.2,6.1,3.1
		C242.3,172.2,242.9,174.6,242.9,177.1z"/>
	<path fill="#052261" d="M182.8,232.5c0,7.4-2.5,12.9-6.7,16.6c-4.3,3.7-11,5.5-20.2,5.5h-11v-44.3h9.8c10.4,0,17.2,1.8,22.1,5.5
		C180.4,218.9,182.8,224.5,182.8,232.5z M170.6,232.5c0-4.3-1.2-7.4-3.1-9.2c-2.5-1.8-5.5-3.1-10.4-3.1h-1.2v24.6h1.2
		c4.9,0,8-1.2,10.4-3.1C169.3,239.9,170.6,236.8,170.6,232.5z"/>
	<path fill="#052261" d="M230.1,254.7h-12.3l-2.5-8h-17.2l-2.5,8h-12.3l16-44.3H214L230.1,254.7z M212.9,238l-6.1-19.1l-6.1,19.1
		H212.9z"/>
	<path fill="#052261" d="M269.3,254.7h-13.5l-10.4-17.2v17.2h-11.7v-44.3h13.5c7.4,0,12.3,1.2,15.3,3.7c3.1,2.5,4.3,5.5,4.3,10.5
		c0,3.7-0.6,6.2-2.5,8.6c-1.8,1.8-4.3,3.7-7.4,4.3L269.3,254.7z M255.2,225.7c0-2.5-0.6-3.7-1.8-4.9s-3.1-1.2-5.5-1.2h-2.5v11.7h1.8
		c2.5,0,4.3-0.6,5.5-1.2C254.6,228.8,255.2,227.6,255.2,225.7z"/>
	<path fill="#052261" d="M300,220.2h-9.2v34.5h-11.7v-34.5h-9.2v-10.5h29.4v10.5H300z"/>
</g>
</svg>
